<?xml version="1.0" encoding="UTF-8" standalone="no"?>
<!--
	Tükörsakk táblája
	Felhasználási feltételek: Nevezd meg! - Így add tovább! (Creative Commons)
	Uray M. János
	2014-2017
-->
<!DOCTYPE svg PUBLIC "-//W3C//DTD SVG 1.1//EN" "http://www.w3.org/Graphics/SVG/1.1/DTD/svg11.dtd">
<svg width="832" height="832" viewBox="-32 -32 832 832" xmlns="http://www.w3.org/2000/svg" xmlns:xlink="http://www.w3.org/1999/xlink">
	
	<!-- keret -->
	<rect fill="#666" x="-32" y="-32" width="832" height="832"/>
	<defs>
		<linearGradient id="bounce-v" x1="0%" y1="0" x2="100%" y2="0%" spreadMethod="pad">
			<stop offset="0%"   stop-color="#444"/>
			<stop offset="50%"  stop-color="#FFF"/>
			<stop offset="100%" stop-color="#444"/>
		</linearGradient>
		<linearGradient id="bounce-h" x1="0%" y1="0" x2="0%" y2="100%" spreadMethod="pad">
			<stop offset="0%"   stop-color="#444"/>
			<stop offset="50%"  stop-color="#FFF"/>
			<stop offset="100%" stop-color="#444"/>
		</linearGradient>
	</defs>
	
	<rect fill="url(#bounce-v)" x="-32" y="-32" width="32" height="832"/>
	<rect fill="url(#bounce-v)" x="768" y="-32" width="32" height="832"/>
	<polygon fill="url(#bounce-h)" points="-32,-32 0,0 768,0 800,-32"/>
	<polygon fill="url(#bounce-h)" points="-32,800 0,768 768,768 800,800"/>
	
	<!-- mezők -->
	<rect fill="#FFF" x="0" y="0" width="96" height="96"/>
	<rect fill="#AAA" x="96" y="0" width="96" height="96"/>
	<rect fill="#FFF" x="192" y="0" width="96" height="96"/>
	<rect fill="#AAA" x="288" y="0" width="96" height="96"/>
	<rect fill="#FFF" x="384" y="0" width="96" height="96"/>
	<rect fill="#AAA" x="480" y="0" width="96" height="96"/>
	<rect fill="#FFF" x="576" y="0" width="96" height="96"/>
	<rect fill="#AAA" x="672" y="0" width="96" height="96"/>
	<rect fill="#AAA" x="0" y="96" width="96" height="96"/>
	<rect fill="#FFF" x="96" y="96" width="96" height="96"/>
	<rect fill="#AAA" x="192" y="96" width="96" height="96"/>
	<rect fill="#FFF" x="288" y="96" width="96" height="96"/>
	<rect fill="#AAA" x="384" y="96" width="96" height="96"/>
	<rect fill="#FFF" x="480" y="96" width="96" height="96"/>
	<rect fill="#AAA" x="576" y="96" width="96" height="96"/>
	<rect fill="#FFF" x="672" y="96" width="96" height="96"/>
	<rect fill="#FFF" x="0" y="192" width="96" height="96"/>
	<rect fill="#AAA" x="96" y="192" width="96" height="96"/>
	<rect fill="#FFF" x="192" y="192" width="96" height="96"/>
	<rect fill="#AAA" x="288" y="192" width="96" height="96"/>
	<rect fill="#FFF" x="384" y="192" width="96" height="96"/>
	<rect fill="#AAA" x="480" y="192" width="96" height="96"/>
	<rect fill="#FFF" x="576" y="192" width="96" height="96"/>
	<rect fill="#AAA" x="672" y="192" width="96" height="96"/>
	<rect fill="#AAA" x="0" y="288" width="96" height="96"/>
	<rect fill="#FFF" x="96" y="288" width="96" height="96"/>
	<rect fill="#AAA" x="192" y="288" width="96" height="96"/>
	<rect fill="#FFF" x="288" y="288" width="96" height="96"/>
	<rect fill="#AAA" x="384" y="288" width="96" height="96"/>
	<rect fill="#FFF" x="480" y="288" width="96" height="96"/>
	<rect fill="#AAA" x="576" y="288" width="96" height="96"/>
	<rect fill="#FFF" x="672" y="288" width="96" height="96"/>
	<rect fill="#FFF" x="0" y="384" width="96" height="96"/>
	<rect fill="#AAA" x="96" y="384" width="96" height="96"/>
	<rect fill="#FFF" x="192" y="384" width="96" height="96"/>
	<rect fill="#AAA" x="288" y="384" width="96" height="96"/>
	<rect fill="#FFF" x="384" y="384" width="96" height="96"/>
	<rect fill="#AAA" x="480" y="384" width="96" height="96"/>
	<rect fill="#FFF" x="576" y="384" width="96" height="96"/>
	<rect fill="#AAA" x="672" y="384" width="96" height="96"/>
	<rect fill="#AAA" x="0" y="480" width="96" height="96"/>
	<rect fill="#FFF" x="96" y="480" width="96" height="96"/>
	<rect fill="#AAA" x="192" y="480" width="96" height="96"/>
	<rect fill="#FFF" x="288" y="480" width="96" height="96"/>
	<rect fill="#AAA" x="384" y="480" width="96" height="96"/>
	<rect fill="#FFF" x="480" y="480" width="96" height="96"/>
	<rect fill="#AAA" x="576" y="480" width="96" height="96"/>
	<rect fill="#FFF" x="672" y="480" width="96" height="96"/>
	<rect fill="#FFF" x="0" y="576" width="96" height="96"/>
	<rect fill="#AAA" x="96" y="576" width="96" height="96"/>
	<rect fill="#FFF" x="192" y="576" width="96" height="96"/>
	<rect fill="#AAA" x="288" y="576" width="96" height="96"/>
	<rect fill="#FFF" x="384" y="576" width="96" height="96"/>
	<rect fill="#AAA" x="480" y="576" width="96" height="96"/>
	<rect fill="#FFF" x="576" y="576" width="96" height="96"/>
	<rect fill="#AAA" x="672" y="576" width="96" height="96"/>
	<rect fill="#AAA" x="0" y="672" width="96" height="96"/>
	<rect fill="#FFF" x="96" y="672" width="96" height="96"/>
	<rect fill="#AAA" x="192" y="672" width="96" height="96"/>
	<rect fill="#FFF" x="288" y="672" width="96" height="96"/>
	<rect fill="#AAA" x="384" y="672" width="96" height="96"/>
	<rect fill="#FFF" x="480" y="672" width="96" height="96"/>
	<rect fill="#AAA" x="576" y="672" width="96" height="96"/>
	<rect fill="#FFF" x="672" y="672" width="96" height="96"/>
	
</svg>
