<?xml version="1.0" encoding="UTF-8" standalone="no"?>
<!--
	Triász sakktábla (piros felől)
	Felhasználási feltételek: Nevezd meg! - Így add tovább! (Creative Commons)
	Uray M. János
	2013-2014
-->
<!DOCTYPE svg PUBLIC "-//W3C//DTD SVG 1.1//EN" "http://www.w3.org/Graphics/SVG/1.1/DTD/svg11.dtd">
<svg width="910" height="828" viewBox="-10 132 910 828" xmlns="http://www.w3.org/2000/svg" xmlns:xlink="http://www.w3.org/1999/xlink">
	
	<!-- keret -->
	<polygon fill="none" stroke="#666" stroke-width="16" stroke-linejoin="miter" points="695.13,140 727.461,140 743.627,168 775.959,168 792.125,196 775.959,224 792.125,252 824.456,252 840.622,280 824.456,308 840.622,336 872.954,336 889.119,364 872.954,392 889.119,420 872.954,448 840.622,448 824.456,476 792.125,476 775.959,504 743.627,504 727.461,532 695.13,532 678.964,560 646.632,560 630.466,588 646.632,616 630.466,644 646.632,672 630.466,700 646.632,728 630.466,756 646.632,784 630.466,812 646.632,840 630.466,868 646.632,896 630.466,924 598.135,924 581.969,952 549.637,952 533.472,924 501.14,924 484.974,952 452.643,952 436.477,924 404.145,924 387.979,952 355.648,952 339.482,924 307.15,924 290.985,896 307.15,868 290.985,840 307.15,812 290.985,784 307.15,756 290.985,728 307.15,700 290.985,672 307.15,644 290.985,616 258.653,616 242.487,588 210.155,588 193.99,560 161.658,560 145.492,532 113.161,532 96.9948,504 64.6632,504 48.4974,476 16.1658,476 0,448 16.1658,420 0,392 16.1658,364 48.4974,364 64.6632,336 48.4974,308 64.6632,280 96.9948,280 113.161,252 96.9948,224 113.161,196 145.492,196 161.658,168 193.99,168 210.155,196 242.487,196 258.653,224 290.985,224 307.15,252 339.482,252 355.648,280 387.979,280 404.145,308 436.477,308 452.643,280 484.974,280 501.14,252 533.472,252 549.637,224 581.969,224 598.135,196 630.466,196 646.632,168 678.964,168 "/>
	
	<!-- mezők -->
	<polygon fill="#CCC" points="759.793,196 727.461,140 695.13,140 662.798,196 "/>
	<polygon fill="#FFF" points="226.321,224 193.99,168 161.658,168 129.326,224 "/>
	<polygon fill="#FFF" points="711.296,224 678.964,168 646.632,168 614.301,224 "/>
	<polygon fill="#FFF" points="775.959,224 792.125,196 775.959,168 743.627,168 711.296,224 "/>
	<polygon fill="#999" points="177.824,252 145.492,196 113.161,196 96.9948,224 113.161,252 "/>
	<polygon fill="#999" points="274.819,252 242.487,196 210.155,196 177.824,252 "/>
	<polygon fill="#999" points="662.798,252 630.466,196 598.135,196 565.803,252 "/>
	<polygon fill="#999" points="759.793,252 727.461,196 695.13,196 662.798,252 "/>
	<polygon fill="#CCC" points="226.321,280 193.99,224 161.658,224 129.326,280 "/>
	<polygon fill="#CCC" points="323.316,280 290.985,224 258.653,224 226.321,280 "/>
	<polygon fill="#CCC" points="614.301,280 581.969,224 549.637,224 517.306,280 "/>
	<polygon fill="#CCC" points="711.296,280 678.964,224 646.632,224 614.301,280 "/>
	<polygon fill="#CCC" points="808.29,280 775.959,224 743.627,224 711.296,280 "/>
	<polygon fill="#FFF" points="177.824,308 145.492,252 113.161,252 80.829,308 "/>
	<polygon fill="#FFF" points="274.819,308 242.487,252 210.155,252 177.824,308 "/>
	<polygon fill="#FFF" points="371.814,308 339.482,252 307.15,252 274.819,308 "/>
	<polygon fill="#FFF" points="565.803,308 533.472,252 501.14,252 468.808,308 "/>
	<polygon fill="#FFF" points="662.798,308 630.466,252 598.135,252 565.803,308 "/>
	<polygon fill="#FFF" points="759.793,308 727.461,252 695.13,252 662.798,308 "/>
	<polygon fill="#FFF" points="824.456,308 840.622,280 824.456,252 792.125,252 759.793,308 "/>
	<polygon fill="#999" points="129.326,336 96.9948,280 64.6632,280 48.4974,308 64.6632,336 "/>
	<polygon fill="#999" points="226.321,336 193.99,280 161.658,280 129.326,336 "/>
	<polygon fill="#999" points="323.316,336 290.985,280 258.653,280 226.321,336 "/>
	<polygon fill="#999" points="420.311,336 387.979,280 355.648,280 323.316,336 "/>
	<polygon fill="#999" points="517.306,336 484.974,280 452.643,280 420.311,336 "/>
	<polygon fill="#999" points="614.301,336 581.969,280 549.637,280 517.306,336 "/>
	<polygon fill="#999" points="711.296,336 678.964,280 646.632,280 614.301,336 "/>
	<polygon fill="#999" points="808.29,336 775.959,280 743.627,280 711.296,336 "/>
	<polygon fill="#CCC" points="177.824,364 145.492,308 113.161,308 80.829,364 "/>
	<polygon fill="#CCC" points="274.819,364 242.487,308 210.155,308 177.824,364 "/>
	<polygon fill="#CCC" points="371.814,364 339.482,308 307.15,308 274.819,364 "/>
	<polygon fill="#CCC" points="468.808,364 436.477,308 404.145,308 371.814,364 "/>
	<polygon fill="#CCC" points="565.803,364 533.472,308 501.14,308 468.808,364 "/>
	<polygon fill="#CCC" points="662.798,364 630.466,308 598.135,308 565.803,364 "/>
	<polygon fill="#CCC" points="759.793,364 727.461,308 695.13,308 662.798,364 "/>
	<polygon fill="#CCC" points="856.788,364 824.456,308 792.125,308 759.793,364 "/>
	<polygon fill="#FFF" points="129.326,392 96.9948,336 64.6632,336 32.3316,392 "/>
	<polygon fill="#FFF" points="226.321,392 193.99,336 161.658,336 129.326,392 "/>
	<polygon fill="#FFF" points="323.316,392 290.985,336 258.653,336 226.321,392 "/>
	<polygon fill="#FFF" points="420.311,392 387.979,336 355.648,336 323.316,392 "/>
	<polygon fill="#FFF" points="517.306,392 484.974,336 452.643,336 420.311,392 "/>
	<polygon fill="#FFF" points="614.301,392 581.969,336 549.637,336 517.306,392 "/>
	<polygon fill="#FFF" points="711.296,392 678.964,336 646.632,336 614.301,392 "/>
	<polygon fill="#FFF" points="808.29,392 775.959,336 743.627,336 711.296,392 "/>
	<polygon fill="#FFF" points="872.954,392 889.119,364 872.954,336 840.622,336 808.29,392 "/>
	<polygon fill="#999" points="80.829,420 48.4974,364 16.1658,364 0,392 16.1658,420 "/>
	<polygon fill="#999" points="177.824,420 145.492,364 113.161,364 80.829,420 "/>
	<polygon fill="#999" points="274.819,420 242.487,364 210.155,364 177.824,420 "/>
	<polygon fill="#999" points="371.814,420 339.482,364 307.15,364 274.819,420 "/>
	<polygon fill="#999" points="468.808,420 436.477,364 404.145,364 371.814,420 "/>
	<polygon fill="#999" points="565.803,420 533.472,364 501.14,364 468.808,420 "/>
	<polygon fill="#999" points="662.798,420 630.466,364 598.135,364 565.803,420 "/>
	<polygon fill="#999" points="759.793,420 727.461,364 695.13,364 662.798,420 "/>
	<polygon fill="#999" points="856.788,420 824.456,364 792.125,364 759.793,420 "/>
	<polygon fill="#CCC" points="129.326,448 96.9948,392 64.6632,392 32.3316,448 "/>
	<polygon fill="#CCC" points="226.321,448 193.99,392 161.658,392 129.326,448 "/>
	<polygon fill="#CCC" points="323.316,448 290.985,392 258.653,392 226.321,448 "/>
	<polygon fill="#CCC" points="420.311,448 387.979,392 355.648,392 323.316,448 "/>
	<polygon fill="#CCC" points="517.306,448 484.974,392 452.643,392 420.311,448 "/>
	<polygon fill="#CCC" points="614.301,448 581.969,392 549.637,392 517.306,448 "/>
	<polygon fill="#CCC" points="711.296,448 678.964,392 646.632,392 614.301,448 "/>
	<polygon fill="#CCC" points="808.29,448 775.959,392 743.627,392 711.296,448 "/>
	<polygon fill="#CCC" points="872.954,448 889.119,420 872.954,392 840.622,392 808.29,448 "/>
	<polygon fill="#FFF" points="80.829,476 48.4974,420 16.1658,420 0,448 16.1658,476 "/>
	<polygon fill="#FFF" points="177.824,476 145.492,420 113.161,420 80.829,476 "/>
	<polygon fill="#FFF" points="274.819,476 242.487,420 210.155,420 177.824,476 "/>
	<polygon fill="#FFF" points="371.814,476 339.482,420 307.15,420 274.819,476 "/>
	<polygon fill="#FFF" points="468.808,476 436.477,420 404.145,420 371.814,476 "/>
	<polygon fill="#FFF" points="565.803,476 533.472,420 501.14,420 468.808,476 "/>
	<polygon fill="#FFF" points="662.798,476 630.466,420 598.135,420 565.803,476 "/>
	<polygon fill="#FFF" points="759.793,476 727.461,420 695.13,420 662.798,476 "/>
	<polygon fill="#FFF" points="824.456,476 840.622,448 824.456,420 792.125,420 759.793,476 "/>
	<polygon fill="#999" points="129.326,504 96.9948,448 64.6632,448 48.4974,476 64.6632,504 "/>
	<polygon fill="#999" points="226.321,504 193.99,448 161.658,448 129.326,504 "/>
	<polygon fill="#999" points="323.316,504 290.985,448 258.653,448 226.321,504 "/>
	<polygon fill="#999" points="420.311,504 387.979,448 355.648,448 323.316,504 "/>
	<polygon fill="#999" points="517.306,504 484.974,448 452.643,448 420.311,504 "/>
	<polygon fill="#999" points="614.301,504 581.969,448 549.637,448 517.306,504 "/>
	<polygon fill="#999" points="711.296,504 678.964,448 646.632,448 614.301,504 "/>
	<polygon fill="#999" points="775.959,504 792.125,476 775.959,448 743.627,448 711.296,504 "/>
	<polygon fill="#CCC" points="177.824,532 145.492,476 113.161,476 96.9948,504 113.161,532 "/>
	<polygon fill="#CCC" points="274.819,532 242.487,476 210.155,476 177.824,532 "/>
	<polygon fill="#CCC" points="371.814,532 339.482,476 307.15,476 274.819,532 "/>
	<polygon fill="#CCC" points="468.808,532 436.477,476 404.145,476 371.814,532 "/>
	<polygon fill="#CCC" points="565.803,532 533.472,476 501.14,476 468.808,532 "/>
	<polygon fill="#CCC" points="662.798,532 630.466,476 598.135,476 565.803,532 "/>
	<polygon fill="#CCC" points="727.461,532 743.627,504 727.461,476 695.13,476 662.798,532 "/>
	<polygon fill="#FFF" points="226.321,560 193.99,504 161.658,504 145.492,532 161.658,560 "/>
	<polygon fill="#FFF" points="323.316,560 290.985,504 258.653,504 226.321,560 "/>
	<polygon fill="#FFF" points="420.311,560 387.979,504 355.648,504 323.316,560 "/>
	<polygon fill="#FFF" points="517.306,560 484.974,504 452.643,504 420.311,560 "/>
	<polygon fill="#FFF" points="614.301,560 581.969,504 549.637,504 517.306,560 "/>
	<polygon fill="#FFF" points="678.964,560 695.13,532 678.964,504 646.632,504 614.301,560 "/>
	<polygon fill="#999" points="274.819,588 242.487,532 210.155,532 193.99,560 210.155,588 "/>
	<polygon fill="#999" points="371.814,588 339.482,532 307.15,532 274.819,588 "/>
	<polygon fill="#999" points="468.808,588 436.477,532 404.145,532 371.814,588 "/>
	<polygon fill="#999" points="565.803,588 533.472,532 501.14,532 468.808,588 "/>
	<polygon fill="#999" points="630.466,588 646.632,560 630.466,532 598.135,532 565.803,588 "/>
	<polygon fill="#CCC" points="323.316,616 290.985,560 258.653,560 242.487,588 258.653,616 "/>
	<polygon fill="#CCC" points="420.311,616 387.979,560 355.648,560 323.316,616 "/>
	<polygon fill="#CCC" points="517.306,616 484.974,560 452.643,560 420.311,616 "/>
	<polygon fill="#CCC" points="614.301,616 581.969,560 549.637,560 517.306,616 "/>
	<polygon fill="#FFF" points="371.814,644 339.482,588 307.15,588 290.985,616 307.15,644 "/>
	<polygon fill="#FFF" points="468.808,644 436.477,588 404.145,588 371.814,644 "/>
	<polygon fill="#FFF" points="565.803,644 533.472,588 501.14,588 468.808,644 "/>
	<polygon fill="#FFF" points="630.466,644 646.632,616 630.466,588 598.135,588 565.803,644 "/>
	<polygon fill="#999" points="420.311,672 387.979,616 355.648,616 323.316,672 "/>
	<polygon fill="#999" points="517.306,672 484.974,616 452.643,616 420.311,672 "/>
	<polygon fill="#999" points="614.301,672 581.969,616 549.637,616 517.306,672 "/>
	<polygon fill="#CCC" points="371.814,700 339.482,644 307.15,644 290.985,672 307.15,700 "/>
	<polygon fill="#CCC" points="468.808,700 436.477,644 404.145,644 371.814,700 "/>
	<polygon fill="#CCC" points="565.803,700 533.472,644 501.14,644 468.808,700 "/>
	<polygon fill="#CCC" points="630.466,700 646.632,672 630.466,644 598.135,644 565.803,700 "/>
	<polygon fill="#FFF" points="420.311,728 387.979,672 355.648,672 323.316,728 "/>
	<polygon fill="#FFF" points="517.306,728 484.974,672 452.643,672 420.311,728 "/>
	<polygon fill="#FFF" points="614.301,728 581.969,672 549.637,672 517.306,728 "/>
	<polygon fill="#999" points="371.814,756 339.482,700 307.15,700 290.985,728 307.15,756 "/>
	<polygon fill="#999" points="468.808,756 436.477,700 404.145,700 371.814,756 "/>
	<polygon fill="#999" points="565.803,756 533.472,700 501.14,700 468.808,756 "/>
	<polygon fill="#999" points="630.466,756 646.632,728 630.466,700 598.135,700 565.803,756 "/>
	<polygon fill="#CCC" points="420.311,784 387.979,728 355.648,728 323.316,784 "/>
	<polygon fill="#CCC" points="517.306,784 484.974,728 452.643,728 420.311,784 "/>
	<polygon fill="#CCC" points="614.301,784 581.969,728 549.637,728 517.306,784 "/>
	<polygon fill="#FFF" points="371.814,812 339.482,756 307.15,756 290.985,784 307.15,812 "/>
	<polygon fill="#FFF" points="468.808,812 436.477,756 404.145,756 371.814,812 "/>
	<polygon fill="#FFF" points="565.803,812 533.472,756 501.14,756 468.808,812 "/>
	<polygon fill="#FFF" points="630.466,812 646.632,784 630.466,756 598.135,756 565.803,812 "/>
	<polygon fill="#999" points="420.311,840 387.979,784 355.648,784 323.316,840 "/>
	<polygon fill="#999" points="517.306,840 484.974,784 452.643,784 420.311,840 "/>
	<polygon fill="#999" points="614.301,840 581.969,784 549.637,784 517.306,840 "/>
	<polygon fill="#CCC" points="371.814,868 339.482,812 307.15,812 290.985,840 307.15,868 "/>
	<polygon fill="#CCC" points="468.808,868 436.477,812 404.145,812 371.814,868 "/>
	<polygon fill="#CCC" points="565.803,868 533.472,812 501.14,812 468.808,868 "/>
	<polygon fill="#CCC" points="630.466,868 646.632,840 630.466,812 598.135,812 565.803,868 "/>
	<polygon fill="#FFF" points="420.311,896 387.979,840 355.648,840 323.316,896 "/>
	<polygon fill="#FFF" points="517.306,896 484.974,840 452.643,840 420.311,896 "/>
	<polygon fill="#FFF" points="614.301,896 581.969,840 549.637,840 517.306,896 "/>
	<polygon fill="#999" points="371.814,924 339.482,868 307.15,868 290.985,896 307.15,924 "/>
	<polygon fill="#999" points="468.808,924 436.477,868 404.145,868 371.814,924 "/>
	<polygon fill="#999" points="565.803,924 533.472,868 501.14,868 468.808,924 "/>
	<polygon fill="#999" points="630.466,924 646.632,896 630.466,868 598.135,868 565.803,924 "/>
	<polygon fill="#CCC" points="387.979,952 404.145,924 387.979,896 355.648,896 339.482,924 355.648,952 "/>
	<polygon fill="#CCC" points="484.974,952 501.14,924 484.974,896 452.643,896 436.477,924 452.643,952 "/>
	<polygon fill="#CCC" points="581.969,952 598.135,924 581.969,896 549.637,896 533.472,924 549.637,952 "/>
	
	<!-- közép -->
	<g fill="none" stroke="#666" stroke-opacity="0.5" stroke-width="2" stroke-dasharray="6.06, 10.10" stroke-dashoffset="3.03" stroke-linecap="round">
		<polyline points="452.643,504 436.477,532 404.145,532 387.979,560 355.648,560 339.482,588 307.150,588 290.985,616"/>
		<polyline points="452.643,504 436.477,476 452.643,448 436.477,420 452.643,392 436.477,364 452.643,336 436.477,308"/>
		<polyline points="452.643,504 484.974,504 501.140,532 533.472,532 549.637,560 581.969,560 598.135,588 630.466,588"/>
	</g>
	
</svg>
