<?xml version="1.0" encoding="UTF-8" standalone="no"?>
<!--
	Végtelen alakú sakktábla
	Felhasználási feltételek: Nevezd meg! - Így add tovább! (Creative Commons)
	Uray M. János
	2013-2014
-->
<!DOCTYPE svg PUBLIC "-//W3C//DTD SVG 1.1//EN" "http://www.w3.org/Graphics/SVG/1.1/DTD/svg11.dtd">
<svg width="944" height="944" viewBox="-472 -472 944 944" xmlns="http://www.w3.org/2000/svg" xmlns:xlink="http://www.w3.org/1999/xlink">
	
	<!-- keret -->
	<g fill="none" stroke="#666" stroke-width="16" stroke-linejoin="miter">
		<path d="M +128,-128 L +128,-168 A 296,296,0 1,0 -168,+128 L -128,+128 L -128 +168 A 296,296,0 1,0 +168,-128 Z"/>
		<path d="M -128,-128 L -128,-168 A 40,40,0 1,0 -168,-128 Z"/>
		<path d="M +128,+128 L +128,+168 A 40,40,0 1,0 +168,+128 Z"/>
	</g>
	
	<!-- középső 4x4 -->
	<g>
		<rect fill="#FFF" x="-128" y="-128" width="64" height="64"/>
		<rect fill="#AAA" x= "-64" y="-128" width="64" height="64"/>
		<rect fill="#FFF" x=   "0" y="-128" width="64" height="64"/>
		<rect fill="#AAA" x= "+64" y="-128" width="64" height="64"/>
		<rect fill="#AAA" x="-128" y= "-64" width="64" height="64"/>
		<rect fill="#FFF" x= "-64" y= "-64" width="64" height="64"/>
		<rect fill="#AAA" x=   "0" y= "-64" width="64" height="64"/>
		<rect fill="#FFF" x= "+64" y= "-64" width="64" height="64"/>
		<rect fill="#FFF" x="-128" y=   "0" width="64" height="64"/>
		<rect fill="#AAA" x= "-64" y=   "0" width="64" height="64"/>
		<rect fill="#FFF" x=   "0" y=   "0" width="64" height="64"/>
		<rect fill="#AAA" x= "+64" y=   "0" width="64" height="64"/>
		<rect fill="#AAA" x="-128" y= "+64" width="64" height="64"/>
		<rect fill="#FFF" x= "-64" y= "+64" width="64" height="64"/>
		<rect fill="#AAA" x=   "0" y= "+64" width="64" height="64"/>
		<rect fill="#FFF" x= "+64" y= "+64" width="64" height="64"/>
	</g>
	
	<!-- bal felső fül -->
	<g transform="translate(-168,-168)">
		<path fill="#AAA" d="M +296,+40 L +296,0 A 296,296,0 1,0 0,+296 L +40,+296 L +40,+40 L 0,+40 A 40,40,0 1,1 +40,0 L +40,+40 Z"/>
		
		<path fill="#FFF" d="M +296,+40 L +296,0 A 296,296,0 0,0 +273.5,-113.2 L +214.3,-88.7 A 232,232,0 0,1 +232,0 L +232,+40 Z"/>
		<path fill="#FFF" d="M +113.2,-273.5 A 296,296,0 0,0 -113.2,-273.5 L -88.7,-214.3 A 232,232,0 0,1 +88.7,-214.3 Z"/>
		<path fill="#FFF" d="M -273.5,-113.2 A 296,296,0 0,0 -273.5,+113.2 L -214.3,+88.7 A 232,232,0 0,1 -214.3,-88.7 Z"/>
		<path fill="#FFF" d="M -113.2,+273.5 A 296,296,0 0,0 0,+296 L +40,+296 L +40,+232 L 0,+232 A 232,232,0 0,1 -88.7,+214.3 Z"/>
	
		<path fill="#FFF" d="M +214.3,-88.7 A 232,232,0 0,0 +88.7,-214.3 L +64.3,-155.2 A 168,168,0 0,1 +155.2,-64.3 Z"/>
		<path fill="#FFF" d="M -88.7,-214.3 A 232,232,0 0,0 -214.3,-88.7 L -155.2,-64.3 A 168,168,0 0,1 -64.3,-155.2 Z"/>
		<path fill="#FFF" d="M -214.3,+88.7 A 232,232,0 0,0 -88.7,+214.3 L -64.3,+155.2 A 168,168,0 0,1 -155.2,+64.3 Z"/>
		
		<path fill="#FFF" d="M +168,+40 L +168,0 A 168,168,0 0,0 +155.2,-64.3 L +96.1,-39.8 A 104,104,0 0,1 +104,0 L +104,+40 Z"/>
		<path fill="#FFF" d="M +64.3,-155.2 A 168,168,0 0,0 -64.3,-155.2 L -39.8,-96.1 A 104,104,0 0,1 +39.8,-96.1 Z"/>
		<path fill="#FFF" d="M -155.2,-64.3 A 168,168,0 0,0 -155.2,+64.3 L -96.1,+39.8 A 104,104,0 0,1 -96.1,-39.8 Z"/>
		<path fill="#FFF" d="M -64.3,+155.2 A 168,168,0 0,0 0,+168 L +40,+168 L +40,+104 L 0,+104 A 104,104,0 0,1 -39.8,+96.1 Z"/>
		
		<path fill="#FFF" d="M +96.1,-39.8 A 104,104,0 0,0 +39.8,-96.1 L +15.3,-36.9 A 40,40,0 0,1 +36.9,-15.3 Z"/>
		<path fill="#FFF" d="M -39.8,-96.1 A 104,104,0 0,0 -96.1,-39.8 L -36.9,-15.3 A 40,40,0 0,1 -15.3,-36.9 Z"/>
		<path fill="#FFF" d="M -96.1,+39.8 A 104,104,0 0,0 -39.8,+96.1 L -15.3,+36.9 A 40,40,0 0,1 -36.9,+15.3 Z"/>
	</g>
	
	<!-- jobb alsó fül -->
	<g transform="translate(+168,+168) scale(-1,-1)">
		<path fill="#AAA" d="M +296,+40 L +296,0 A 296,296,0 1,0 0,+296 L +40,+296 L +40,+40 L 0,+40 A 40,40,0 1,1 +40,0 L +40,+40 Z"/>
		
		<path fill="#FFF" d="M +296,+40 L +296,0 A 296,296,0 0,0 +273.5,-113.2 L +214.3,-88.7 A 232,232,0 0,1 +232,0 L +232,+40 Z"/>
		<path fill="#FFF" d="M +113.2,-273.5 A 296,296,0 0,0 -113.2,-273.5 L -88.7,-214.3 A 232,232,0 0,1 +88.7,-214.3 Z"/>
		<path fill="#FFF" d="M -273.5,-113.2 A 296,296,0 0,0 -273.5,+113.2 L -214.3,+88.7 A 232,232,0 0,1 -214.3,-88.7 Z"/>
		<path fill="#FFF" d="M -113.2,+273.5 A 296,296,0 0,0 0,+296 L +40,+296 L +40,+232 L 0,+232 A 232,232,0 0,1 -88.7,+214.3 Z"/>
	
		<path fill="#FFF" d="M +214.3,-88.7 A 232,232,0 0,0 +88.7,-214.3 L +64.3,-155.2 A 168,168,0 0,1 +155.2,-64.3 Z"/>
		<path fill="#FFF" d="M -88.7,-214.3 A 232,232,0 0,0 -214.3,-88.7 L -155.2,-64.3 A 168,168,0 0,1 -64.3,-155.2 Z"/>
		<path fill="#FFF" d="M -214.3,+88.7 A 232,232,0 0,0 -88.7,+214.3 L -64.3,+155.2 A 168,168,0 0,1 -155.2,+64.3 Z"/>
		
		<path fill="#FFF" d="M +168,+40 L +168,0 A 168,168,0 0,0 +155.2,-64.3 L +96.1,-39.8 A 104,104,0 0,1 +104,0 L +104,+40 Z"/>
		<path fill="#FFF" d="M +64.3,-155.2 A 168,168,0 0,0 -64.3,-155.2 L -39.8,-96.1 A 104,104,0 0,1 +39.8,-96.1 Z"/>
		<path fill="#FFF" d="M -155.2,-64.3 A 168,168,0 0,0 -155.2,+64.3 L -96.1,+39.8 A 104,104,0 0,1 -96.1,-39.8 Z"/>
		<path fill="#FFF" d="M -64.3,+155.2 A 168,168,0 0,0 0,+168 L +40,+168 L +40,+104 L 0,+104 A 104,104,0 0,1 -39.8,+96.1 Z"/>
		
		<path fill="#FFF" d="M +96.1,-39.8 A 104,104,0 0,0 +39.8,-96.1 L +15.3,-36.9 A 40,40,0 0,1 +36.9,-15.3 Z"/>
		<path fill="#FFF" d="M -39.8,-96.1 A 104,104,0 0,0 -96.1,-39.8 L -36.9,-15.3 A 40,40,0 0,1 -15.3,-36.9 Z"/>
		<path fill="#FFF" d="M -96.1,+39.8 A 104,104,0 0,0 -39.8,+96.1 L -15.3,+36.9 A 40,40,0 0,1 -36.9,+15.3 Z"/>
	</g>
	
	<!-- jelölés -->
	<line stroke="#666" stroke-width="4" stroke-dasharray="12, 20" stroke-dashoffset="6" stroke-linecap="round" x1="-183.3" y1="-204.9" x2="-281.2" y2="-441.5"/>
	<line stroke="#666" stroke-width="4" stroke-dasharray="12, 20" stroke-dashoffset="6" stroke-linecap="round" x1="+183.3" y1="+204.9" x2="+281.2" y2="+441.5"/>
	
</svg>
