<?xml version="1.0" encoding="UTF-8" standalone="no"?>
<!--
	Kerek sakktábla
	Felhasználási feltételek: Nevezd meg! - Így add tovább! (Creative Commons)
	Uray M. János
	2013-2014
-->
<!DOCTYPE svg PUBLIC "-//W3C//DTD SVG 1.1//EN" "http://www.w3.org/Graphics/SVG/1.1/DTD/svg11.dtd">
<svg width="832" height="832" viewBox="-416 -416 832 832" xmlns="http://www.w3.org/2000/svg" xmlns:xlink="http://www.w3.org/1999/xlink">
	
	<!-- keret -->
	<circle fill="none" stroke="#666" stroke-width="16" cx="0" cy="0" r="407.29"/>
	
	<!-- jobb alsó negyed -->
	<path fill="#AAA" d="M 0,0 L +407.29,0 A 407.29,407.29,0 0,1 +400.88,+72 L +72,+72 L +72,+400.88 A 407.29,407.29,0 0,1 0,+407.29 Z"/>
	<path fill="#FFF" d="M 0,0 L +305.47,0 A 305.47,305.47,0 0,1 +296.86,+72 L +72,+72 L +72,+296.86 A 305.47,305.47,0 0,1 0,+305.47 Z"/>
	<path fill="#AAA" d="M 0,0 L +203.65,0 A 203.65,203.65,0 0,1 +190.49,+72 L +72,+72 L +72,+190.49 A 203.65,203.65,0 0,1 0,+203.65 Z"/>
	<path fill="#FFF" d="M 0,0 L +101.82,0 A 101.82,101.82,0 0,1 0,+101.82 Z"/>
	
	<path fill="#FFF" d="M +72,+72 L +400.88,+72 A 407.29,407.29,0 0,1 +380.99,+144 L +144,+144 L +144,+380.99 A 407.29,407.29,0 0,1 +72,+400.88 Z"/>
	<path fill="#AAA" d="M +72,+72 L +296.86,+72 A 305.47,305.47,0 0,1 +269.40,+144 L +144,+144 L +144,+269.40 A 305.47,305.47,0 0,1 +72,+296.86 Z"/>
	<path fill="#FFF" d="M +72,+72 L +190.49,+72 A 203.65,203.65,0 0,1 +72,+190.49 Z"/>
	
	<path fill="#AAA" d="M +144,+144 L +380.99,+144 A 407.29,407.29,0 0,1 +345.30,+216 L +216,+216 L +216,+345.30 A 407.29,407.29,0 0,1 +144,+380.99 Z"/>
	<path fill="#FFF" d="M +144,+144 L +269.40,+144 A 305.47,305.47,0 0,1 +144,+269.40 Z"/>
	
	<path fill="#FFF" d="M +216,+216 L +345.30,+216 A 407.29,407.29,0 0,1 +216,+345.30 Z"/>
	
	<!-- jobb felső negyed -->
	<path fill="#FFF" d="M 0,0 L +407.29,0 A 407.29,407.29,0 0,0 +400.88,-72 L +72,-72 L +72,-400.88 A 407.29,407.29,0 0,0 0,-407.29 Z"/>
	<path fill="#AAA" d="M 0,0 L +305.47,0 A 305.47,305.47,0 0,0 +296.86,-72 L +72,-72 L +72,-296.86 A 305.47,305.47,0 0,0 0,-305.47 Z"/>
	<path fill="#FFF" d="M 0,0 L +203.65,0 A 203.65,203.65,0 0,0 +190.49,-72 L +72,-72 L +72,-190.49 A 203.65,203.65,0 0,0 0,-203.65 Z"/>
	<path fill="#AAA" d="M 0,0 L +101.82,0 A 101.82,101.82,0 0,0 0,-101.82 Z"/>
	
	<path fill="#AAA" d="M +72,-72 L +400.88,-72 A 407.29,407.29,0 0,0 +380.99,-144 L +144,-144 L +144,-380.99 A 407.29,407.29,0 0,0 +72,-400.88 Z"/>
	<path fill="#FFF" d="M +72,-72 L +296.86,-72 A 305.47,305.47,0 0,0 +269.40,-144 L +144,-144 L +144,-269.40 A 305.47,305.47,0 0,0 +72,-296.86 Z"/>
	<path fill="#AAA" d="M +72,-72 L +190.49,-72 A 203.65,203.65,0 0,0 +72,-190.49 Z"/>
	
	<path fill="#FFF" d="M +144,-144 L +380.99,-144 A 407.29,407.29,0 0,0 +345.30,-216 L +216,-216 L +216,-345.30 A 407.29,407.29,0 0,0 +144,-380.99 Z"/>
	<path fill="#AAA" d="M +144,-144 L +269.40,-144 A 305.47,305.47,0 0,0 +144,-269.40 Z"/>
	
	<path fill="#AAA" d="M +216,-216 L +345.30,-216 A 407.29,407.29,0 0,0 +216,-345.30 Z"/>
	
	<!-- bal felső negyed -->
	<path fill="#AAA" d="M 0,0 L -407.29,0 A 407.29,407.29,0 0,1 -400.88,-72 L -72,-72 L -72,-400.88 A 407.29,407.29,0 0,1 0,-407.29 Z"/>
	<path fill="#FFF" d="M 0,0 L -305.47,0 A 305.47,305.47,0 0,1 -296.86,-72 L -72,-72 L -72,-296.86 A 305.47,305.47,0 0,1 0,-305.47 Z"/>
	<path fill="#AAA" d="M 0,0 L -203.65,0 A 203.65,203.65,0 0,1 -190.49,-72 L -72,-72 L -72,-190.49 A 203.65,203.65,0 0,1 0,-203.65 Z"/>
	<path fill="#FFF" d="M 0,0 L -101.82,0 A 101.82,101.82,0 0,1 0,-101.82 Z"/>
	
	<path fill="#FFF" d="M -72,-72 L -400.88,-72 A 407.29,407.29,0 0,1 -380.99,-144 L -144,-144 L -144,-380.99 A 407.29,407.29,0 0,1 -72,-400.88 Z"/>
	<path fill="#AAA" d="M -72,-72 L -296.86,-72 A 305.47,305.47,0 0,1 -269.40,-144 L -144,-144 L -144,-269.40 A 305.47,305.47,0 0,1 -72,-296.86 Z"/>
	<path fill="#FFF" d="M -72,-72 L -190.49,-72 A 203.65,203.65,0 0,1 -72,-190.49 Z"/>
	
	<path fill="#AAA" d="M -144,-144 L -380.99,-144 A 407.29,407.29,0 0,1 -345.30,-216 L -216,-216 L -216,-345.30 A 407.29,407.29,0 0,1 -144,-380.99 Z"/>
	<path fill="#FFF" d="M -144,-144 L -269.40,-144 A 305.47,305.47,0 0,1 -144,-269.40 Z"/>
	
	<path fill="#FFF" d="M -216,-216 L -345.30,-216 A 407.29,407.29,0 0,1 -216,-345.30 Z"/>
	
	<!-- bal alsó negyed -->
	<path fill="#FFF" d="M 0,0 L -407.29,0 A 407.29,407.29,0 0,0 -400.88,+72 L -72,+72 L -72,+400.88 A 407.29,407.29,0 0,0 0,+407.29 Z"/>
	<path fill="#AAA" d="M 0,0 L -305.47,0 A 305.47,305.47,0 0,0 -296.86,+72 L -72,+72 L -72,+296.86 A 305.47,305.47,0 0,0 0,+305.47 Z"/>
	<path fill="#FFF" d="M 0,0 L -203.65,0 A 203.65,203.65,0 0,0 -190.49,+72 L -72,+72 L -72,+190.49 A 203.65,203.65,0 0,0 0,+203.65 Z"/>
	<path fill="#AAA" d="M 0,0 L -101.82,0 A 101.82,101.82,0 0,0 0,+101.82 Z"/>
	
	<path fill="#AAA" d="M -72,+72 L -400.88,+72 A 407.29,407.29,0 0,0 -380.99,+144 L -144,+144 L -144,+380.99 A 407.29,407.29,0 0,0 -72,+400.88 Z"/>
	<path fill="#FFF" d="M -72,+72 L -296.86,+72 A 305.47,305.47,0 0,0 -269.40,+144 L -144,+144 L -144,+269.40 A 305.47,305.47,0 0,0 -72,+296.86 Z"/>
	<path fill="#AAA" d="M -72,+72 L -190.49,+72 A 203.65,203.65,0 0,0 -72,+190.49 Z"/>
	
	<path fill="#FFF" d="M -144,+144 L -380.99,+144 A 407.29,407.29,0 0,0 -345.30,+216 L -216,+216 L -216,+345.30 A 407.29,407.29,0 0,0 -144,+380.99 Z"/>
	<path fill="#AAA" d="M -144,+144 L -269.40,+144 A 305.47,305.47,0 0,0 -144,+269.40 Z"/>
	
	<path fill="#AAA" d="M -216,+216 L -345.30,+216 A 407.29,407.29,0 0,0 -216,+345.30 Z"/>
	
	
</svg>
