<?xml version="1.0" encoding="UTF-8" standalone="no"?>
<!--
	Torzított sakktábla
	Felhasználási feltételek: Nevezd meg! - Így add tovább! (Creative Commons)
	Uray M. János
	2013-2014
-->
<!DOCTYPE svg PUBLIC "-//W3C//DTD SVG 1.1//EN" "http://www.w3.org/Graphics/SVG/1.1/DTD/svg11.dtd">
<svg width="592" height="880" viewBox="-296 -440 592 880" xmlns="http://www.w3.org/2000/svg" xmlns:xlink="http://www.w3.org/1999/xlink">
	
	<!-- keret -->
	<path fill="none" stroke="#666" stroke-width="16" stroke-linejoin="miter" d="M +288,-321.99 A 432,432,0 0,0 -288,-321.99 L -288,+321.99 A 432,432,0 0,0 +288,+321.99 Z"/>
	
	<!-- a-vonal -->
	<path fill="#AAA" d="M -216,-374.12 A 432,432,0 0,0 -288,-321.99 L -288,+321.99 A 432,432,0 0,0 -216,+374.12 Z"/>
	<path fill="#FFF" d="M -216,-288.00 A 360,360,0 0,0 -288,-216.00 L -288,+216.00 A 360,360,0 0,0 -216,+288.00 Z"/>
	<path fill="#AAA" d="M -216,-190.49 A 288,288,0 0,0 -288,0.00 L -288,0.00 A 288,288,0 0,0 -216,+190.49 Z"/>
	
	<!-- b-vonal -->
	<path fill="#FFF" d="M -144,-407.29 A 432,432,0 0,0 -216,-374.12 L -216,+374.12 A 432,432,0 0,0 -144,+407.29 Z"/>
	<path fill="#AAA" d="M -144,-329.95 A 360,360,0 0,0 -216,-288.00 L -216,+288.00 A 360,360,0 0,0 -144,+329.95 Z"/>
	<path fill="#FFF" d="M -144,-249.42 A 288,288,0 0,0 -216,-190.49 L -216,+190.49 A 288,288,0 0,0 -144,+249.42 Z"/>
	<path fill="#AAA" d="M -144,-161.00 A 216,216,0 0,0 -216,0.00 L -216,0.00 A 216,216,0 0,0 -144,+161.00 Z"/>
	
	<!-- c-vonal -->
	<path fill="#AAA" d="M -72,-425.96 A 432,432,0 0,0 -144,-407.29 L -144,+407.29 A 432,432,0 0,0 -72,+425.96 Z"/>
	<path fill="#FFF" d="M -72,-352.73 A 360,360,0 0,0 -144,-329.95 L -144,+329.95 A 360,360,0 0,0 -72,+352.73 Z"/>
	<path fill="#AAA" d="M -72,-278.85 A 288,288,0 0,0 -144,-249.42 L -144,+249.42 A 288,288,0 0,0 -72,+278.85 Z"/>
	<path fill="#FFF" d="M -72,-203.65 A 216,216,0 0,0 -144,-161.00 L -144,+161.00 A 216,216,0 0,0 -72,+203.65 Z"/>
	<path fill="#AAA" d="M -72,-124.71 A 144,144,0 0,0 -144,0.00 L -144,0.00 A 144,144,0 0,0 -72,+124.71 Z"/>
	
	<!-- d-vonal -->
	<path fill="#FFF" d="M 0,-432.00 A 432,432,0 0,0 -72,-425.96 L -72,+425.96 A 432,432,0 0,0 0,+432.00 Z"/>
	<path fill="#AAA" d="M 0,-360.00 A 360,360,0 0,0 -72,-352.73 L -72,+352.73 A 360,360,0 0,0 0,+360.00 Z"/>
	<path fill="#FFF" d="M 0,-288.00 A 288,288,0 0,0 -72,-278.85 L -72,+278.85 A 288,288,0 0,0 0,+288.00 Z"/>
	<path fill="#AAA" d="M 0,-216.00 A 216,216,0 0,0 -72,-203.65 L -72,+203.65 A 216,216,0 0,0 0,+216.00 Z"/>
	<path fill="#FFF" d="M 0,-144.00 A 144,144,0 0,0 -72,-124.71 L -72,+124.71 A 144,144,0 0,0 0,+144.00 Z"/>
	<path fill="#AAA" d="M 0,-72.00 A 72,72,0 0,0 0,+72.00 Z"/>
	
	<!-- e-vonal -->
	<path fill="#AAA" d="M +72,-425.96 A 432,432,0 0,0 0,-432.00 L 0,+432.00 A 432,432,0 0,0 +72,+425.96 Z"/>
	<path fill="#FFF" d="M +72,-352.73 A 360,360,0 0,0 0,-360.00 L 0,+360.00 A 360,360,0 0,0 +72,+352.73 Z"/>
	<path fill="#AAA" d="M +72,-278.85 A 288,288,0 0,0 0,-288.00 L 0,+288.00 A 288,288,0 0,0 +72,+278.85 Z"/>
	<path fill="#FFF" d="M +72,-203.65 A 216,216,0 0,0 0,-216.00 L 0,+216.00 A 216,216,0 0,0 +72,+203.65 Z"/>
	<path fill="#AAA" d="M +72,-124.71 A 144,144,0 0,0 0,-144.00 L 0,+144.00 A 144,144,0 0,0 +72,+124.71 Z"/>
	<path fill="#FFF" d="M 0,+72.00 A 72,72,0 0,0 0,-72.00 Z"/>
	
	<!-- f-vonal -->
	<path fill="#FFF" d="M +144,-407.29 A 432,432,0 0,0 +72,-425.96 L +72,+425.96 A 432,432,0 0,0 +144,+407.29 Z"/>
	<path fill="#AAA" d="M +144,-329.95 A 360,360,0 0,0 +72,-352.73 L +72,+352.73 A 360,360,0 0,0 +144,+329.95 Z"/>
	<path fill="#FFF" d="M +144,-249.42 A 288,288,0 0,0 +72,-278.85 L +72,+278.85 A 288,288,0 0,0 +144,+249.42 Z"/>
	<path fill="#AAA" d="M +144,-161.00 A 216,216,0 0,0 +72,-203.65 L +72,+203.65 A 216,216,0 0,0 +144,+161.00 Z"/>
	<path fill="#FFF" d="M +144,0.00 A 144,144,0 0,0 +72,-124.71 L +72,+124.71 A 144,144,0 0,0 +144,0.00 Z"/>
	
	<!-- g-vonal -->
	<path fill="#AAA" d="M +216,-374.12 A 432,432,0 0,0 +144,-407.29 L +144,+407.29 A 432,432,0 0,0 +216,+374.12 Z"/>
	<path fill="#FFF" d="M +216,-288.00 A 360,360,0 0,0 +144,-329.95 L +144,+329.95 A 360,360,0 0,0 +216,+288.00 Z"/>
	<path fill="#AAA" d="M +216,-190.49 A 288,288,0 0,0 +144,-249.42 L +144,+249.42 A 288,288,0 0,0 +216,+190.49 Z"/>
	<path fill="#FFF" d="M +216,0.00 A 216,216,0 0,0 +144,-161.00 L +144,+161.00 A 216,216,0 0,0 +216,0.00 Z"/>
	
	<!-- h-vonal -->
	<path fill="#FFF" d="M +288,-321.99 A 432,432,0 0,0 +216,-374.12 L +216,+374.12 A 432,432,0 0,0 +288,+321.99 Z"/>
	<path fill="#AAA" d="M +288,-216.00 A 360,360,0 0,0 +216,-288.00 L +216,+288.00 A 360,360,0 0,0 +288,+216.00 Z"/>
	<path fill="#FFF" d="M +288,0.00 A 288,288,0 0,0 +216,-190.49 L +216,+190.49 A 288,288,0 0,0 +288,0.00 Z"/>
	
	
</svg>
