<?xml version="1.0" encoding="UTF-8" standalone="no"?>
<!--
	Nyolcszögletű négyszemélyes sakktábla
	Felhasználási feltételek: Nevezd meg! - Így add tovább! (Creative Commons)
	Uray M. János
	2013-2014
-->
<!DOCTYPE svg PUBLIC "-//W3C//DTD SVG 1.1//EN" "http://www.w3.org/Graphics/SVG/1.1/DTD/svg11.dtd">
<svg width="944" height="944" viewBox="-472 -472 944 944" xmlns="http://www.w3.org/2000/svg" xmlns:xlink="http://www.w3.org/1999/xlink">
	
	<polygon fill="none" stroke="#666" stroke-width="16" stroke-linejoin="miter" points="+192,+463.53 +463.53,+192 +463.53,-192 +192,-463.53 -192,-463.53 -463.53,-192 -463.53,+192 -192,+463.53"/>
	
	<polygon fill="#AAA" points="+192,+463.53 +463.53,+192 +463.53,-192 +192,-463.53 -192,-463.53 -463.53,-192 -463.53,+192 -192,+463.53"/>
	
	<defs>
		<g id="quarter">
			<polygon fill="#FFF" points="+48.00,+463.53 +96.00,+463.53 +108.01,+385.35 +51.30,+374.53"/>
			<polygon fill="#FFF" points="+144.00,+463.53 +192.00,+463.53 +225.94,+429.59 +167.46,+404.28"/>
			<polygon fill="#FFF" points="0,+371.33 +51.30,+374.53 +57.49,+279.26 0,+271.53"/>
			<polygon fill="#FFF" points="+108.01,+385.35 +167.46,+404.28 +196.11,+348.86 +127.18,+307.03"/>
			<polygon fill="#FFF" points="+57.49,+279.26 +127.18,+307.03 +156.81,+238.12 +73.38,+177.15"/>
			<polygon fill="#FFF" points="+196.11,+348.86 +259.88,+395.65 +293.82,+361.71 +228.56,+301.11"/>
			<polygon fill="#FFF" points="0,+153.81 +73.38,+177.15 +108.76,+108.76 0,0"/>
			<polygon fill="#FFF" points="+156.81,+238.12 +228.56,+301.11 +262.57,+262.57 +192.00,+192.00"/>
			
			<polygon fill="#FFF" points="+108.76,+108.76 +192.00,+192.00 +238.12,+156.81 +177.15,+73.38"/>
			<polygon fill="#FFF" points="+262.57,+262.57 +327.76,+327.76 +361.71,+293.82 +301.11,+228.56"/>
			<polygon fill="#FFF" points="+153.81,0 +177.15,+73.38 +279.26,+57.49 +271.53,0"/>
			<polygon fill="#FFF" points="+238.12,+156.81 +301.11,+228.56 +348.86,+196.11 +307.03,+127.18"/>
			<polygon fill="#FFF" points="+279.26,+57.49 +307.03,+127.18 +385.35,+108.01 +374.53,+51.30"/>
			<polygon fill="#FFF" points="+348.86,+196.11 +395.65,+259.88 +429.59,+225.94 +404.28,+167.46"/>
			<polygon fill="#FFF" points="+371.33,0 +374.53,+51.30 +463.53,+48.00 +463.53,0"/>
			<polygon fill="#FFF" points="+385.35,+108.01 +404.28,+167.46 +463.53,+144.00 +463.53,+96.00"/>
		</g>
	</defs>
	
	<use xlink:href="#quarter"/>
	<use xlink:href="#quarter" transform="rotate(90)"/>
	<use xlink:href="#quarter" transform="rotate(180)"/>
	<use xlink:href="#quarter" transform="rotate(270)"/>
	
	(0)x(0) (0.0000000000, 0.0000000000)
	(0)x(1) (0.0000000000, 0.3318213621)
	(0)x(2) (0.0000000000, 0.5857864376)
	(0)x(3) (0.0000000000, 0.8010876326)
	(0)x(4) (0.0000000000, 1.0000000000)
	(1)x(0) (0.2346331353, 0.2346331353)
	(1)x(1) (0.1582995617, 0.3821689260)
	(1)x(2) (0.1240269304, 0.6024554224)
	(1)x(3) (0.1106630824, 0.8080003600)
	(1)x(4) (0.1035533906, 1.0000000000)
	(2)x(0) (0.4142135624, 0.4142135624)
	(2)x(1) (0.3383000339, 0.5137006057)
	(2)x(2) (0.2743688963, 0.6623851049)
	(2)x(3) (0.2330112466, 0.8313368471)
	(2)x(4) (0.2071067812, 1.0000000000)
	(3)x(0) (0.5664544974, 0.5664544974)
	(3)x(1) (0.4930919485, 0.6495931068)
	(3)x(2) (0.4230801231, 0.7526077544)
	(3)x(3) (0.3612708453, 0.8721850274)
	(3)x(4) (0.3106601718, 1.0000000000)
	(4)x(0) (0.7071067812, 0.7071067812)
	(4)x(1) (0.6338834765, 0.7803300859)
	(4)x(2) (0.5606601718, 0.8535533906)
	(4)x(3) (0.4874368671, 0.9267766953)
	(4)x(4) (0.4142135624, 1.0000000000)
	
	(0) x==0
	(1) (x-0.0764648704)*(y-0.0764648704)==0.0250172000
	(2) (x-0.0938363214)*(y-0.0938363214)==0.1026415766
	(3) (x+0.0574428027)*(y+0.0574428027)==0.3892478410
	(4) x+y==1.4142135624
	
	(0) x==y
	(1) (x+y-0.1081376568)*(y-x-0.1081376568)==0.0500344000
	(2) (x+y-0.1327045983)*(y-x-0.1327045983)==0.2052831531
	(3) (x+y+0.0812363906)*(y-x+0.0812363906)==0.7784956819
	(4) y==1
	
	a              c              b^2            d
	0              0              0              0
	0.2346331353   0.1035533906   0.0250172000   0.0764648704
	0.4142135624   0.2071067812   0.1026415766   0.0938363214
	0.5664544974   0.3106601718   0.3892478410  -0.0574428027
	0.7071067812   0.4142135624  +inf           -inf
	
</svg>
