<?xml version="1.0" encoding="UTF-8" standalone="no"?>
<!--
	Háromszemélyes sakktábla
	Felhasználási feltételek: Nevezd meg! - Így add tovább! (Creative Commons)
	Uray M. János
	2013-2014
-->
<!DOCTYPE svg PUBLIC "-//W3C//DTD SVG 1.1//EN" "http://www.w3.org/Graphics/SVG/1.1/DTD/svg11.dtd">
<svg width="916" height="792" viewBox="-458 -396 916 792" xmlns="http://www.w3.org/2000/svg" xmlns:xlink="http://www.w3.org/1999/xlink">
	
	<polygon fill="none" stroke="#666" stroke-width="16" stroke-linejoin="miter" points="+448,0 +224,-387.98 -224,-387.98 -448,0 -224,+387.98 +224,+387.98"/>
	
	<polygon fill="#AAA" points="+448,0 +224,-387.98 -224,-387.98 -448,0 -224,+387.98 +224,+387.98"/>
	
	<g>
		<polygon fill="#FFF" points="+224.00,+387.98 +252.00,+339.48 +189.00,+327.36 +168.00,+387.98"/>
		<polygon fill="#FFF" points="+112.00,+387.98 +126.00,+315.24  +62.75,+306.18  +56.00,+387.98"/>
		<polygon fill="#FFF" points="+189.00,+327.36 +210.00,+266.74 +140.00,+242.49 +126.00,+315.24"/>
		<polygon fill="#FFF" points=" +62.75,+306.18  +69.20,+227.91    0.00,+219.28    0.00,+303.22"/>
		<polygon fill="#FFF" points="+280.00,+290.98 +308.00,+242.49 +233.78,+207.43 +210.00,+266.74"/>
		<polygon fill="#FFF" points="+140.00,+242.49 +162.78,+173.89  +83.75,+145.06  +69.20,+227.91"/>
		<polygon fill="#FFF" points="+233.78,+207.43 +262.60,+151.61 +189.90,+109.64 +162.78,+173.89"/>
		<polygon fill="#FFF" points=" +83.75,+145.06 +117.08, +67.60    0.00,   0.00    0.00,+135.20"/>
		
		<polygon fill="#FFF" points="   0.00,+387.98    0.00,+303.22  -62.75,+306.18  -56.00,+387.98"/>
		<polygon fill="#FFF" points="-112.00,+387.98 -126.00,+315.24 -189.00,+327.36 -168.00,+387.98"/>
		<polygon fill="#FFF" points=" -62.75,+306.18  -69.20,+227.91 -140.00,+242.49 -126.00,+315.24"/>
		<polygon fill="#FFF" points="-189.00,+327.36 -210.00,+266.74 -280.00,+290.98 -252.00,+339.48"/>
		<polygon fill="#FFF" points="   0.00,+219.28    0.00,+135.20  -83.75,+145.06  -69.20,+227.91"/>
		<polygon fill="#FFF" points="-140.00,+242.49 -162.78,+173.89 -233.78,+207.43 -210.00,+266.74"/>
		<polygon fill="#FFF" points=" -83.75,+145.06 -117.08, +67.60 -189.90,+109.64 -162.78,+173.89"/>
		<polygon fill="#FFF" points="-233.78,+207.43 -262.60,+151.61 -336.00,+193.99 -308.00,+242.49"/>
	</g>
	
	<g transform="rotate(+120)">
		<polygon fill="#FFF" points="+224.00,+387.98 +252.00,+339.48 +189.00,+327.36 +168.00,+387.98"/>
		<polygon fill="#FFF" points="+112.00,+387.98 +126.00,+315.24  +62.75,+306.18  +56.00,+387.98"/>
		<polygon fill="#FFF" points="+189.00,+327.36 +210.00,+266.74 +140.00,+242.49 +126.00,+315.24"/>
		<polygon fill="#FFF" points=" +62.75,+306.18  +69.20,+227.91    0.00,+219.28    0.00,+303.22"/>
		<polygon fill="#FFF" points="+280.00,+290.98 +308.00,+242.49 +233.78,+207.43 +210.00,+266.74"/>
		<polygon fill="#FFF" points="+140.00,+242.49 +162.78,+173.89  +83.75,+145.06  +69.20,+227.91"/>
		<polygon fill="#FFF" points="+233.78,+207.43 +262.60,+151.61 +189.90,+109.64 +162.78,+173.89"/>
		<polygon fill="#FFF" points=" +83.75,+145.06 +117.08, +67.60    0.00,   0.00    0.00,+135.20"/>
		
		<polygon fill="#FFF" points="   0.00,+387.98    0.00,+303.22  -62.75,+306.18  -56.00,+387.98"/>
		<polygon fill="#FFF" points="-112.00,+387.98 -126.00,+315.24 -189.00,+327.36 -168.00,+387.98"/>
		<polygon fill="#FFF" points=" -62.75,+306.18  -69.20,+227.91 -140.00,+242.49 -126.00,+315.24"/>
		<polygon fill="#FFF" points="-189.00,+327.36 -210.00,+266.74 -280.00,+290.98 -252.00,+339.48"/>
		<polygon fill="#FFF" points="   0.00,+219.28    0.00,+135.20  -83.75,+145.06  -69.20,+227.91"/>
		<polygon fill="#FFF" points="-140.00,+242.49 -162.78,+173.89 -233.78,+207.43 -210.00,+266.74"/>
		<polygon fill="#FFF" points=" -83.75,+145.06 -117.08, +67.60 -189.90,+109.64 -162.78,+173.89"/>
		<polygon fill="#FFF" points="-233.78,+207.43 -262.60,+151.61 -336.00,+193.99 -308.00,+242.49"/>
	</g>
	
	<g transform="rotate(-120)">
		<polygon fill="#FFF" points="+224.00,+387.98 +252.00,+339.48 +189.00,+327.36 +168.00,+387.98"/>
		<polygon fill="#FFF" points="+112.00,+387.98 +126.00,+315.24  +62.75,+306.18  +56.00,+387.98"/>
		<polygon fill="#FFF" points="+189.00,+327.36 +210.00,+266.74 +140.00,+242.49 +126.00,+315.24"/>
		<polygon fill="#FFF" points=" +62.75,+306.18  +69.20,+227.91    0.00,+219.28    0.00,+303.22"/>
		<polygon fill="#FFF" points="+280.00,+290.98 +308.00,+242.49 +233.78,+207.43 +210.00,+266.74"/>
		<polygon fill="#FFF" points="+140.00,+242.49 +162.78,+173.89  +83.75,+145.06  +69.20,+227.91"/>
		<polygon fill="#FFF" points="+233.78,+207.43 +262.60,+151.61 +189.90,+109.64 +162.78,+173.89"/>
		<polygon fill="#FFF" points=" +83.75,+145.06 +117.08, +67.60    0.00,   0.00    0.00,+135.20"/>
		
		<polygon fill="#FFF" points="   0.00,+387.98    0.00,+303.22  -62.75,+306.18  -56.00,+387.98"/>
		<polygon fill="#FFF" points="-112.00,+387.98 -126.00,+315.24 -189.00,+327.36 -168.00,+387.98"/>
		<polygon fill="#FFF" points=" -62.75,+306.18  -69.20,+227.91 -140.00,+242.49 -126.00,+315.24"/>
		<polygon fill="#FFF" points="-189.00,+327.36 -210.00,+266.74 -280.00,+290.98 -252.00,+339.48"/>
		<polygon fill="#FFF" points="   0.00,+219.28    0.00,+135.20  -83.75,+145.06  -69.20,+227.91"/>
		<polygon fill="#FFF" points="-140.00,+242.49 -162.78,+173.89 -233.78,+207.43 -210.00,+266.74"/>
		<polygon fill="#FFF" points=" -83.75,+145.06 -117.08, +67.60 -189.90,+109.64 -162.78,+173.89"/>
		<polygon fill="#FFF" points="-233.78,+207.43 -262.60,+151.61 -336.00,+193.99 -308.00,+242.49"/>
	</g>
	
</svg>
